<?xml version="1.0" encoding="UTF-8" standalone="no"?>
<!DOCTYPE svg PUBLIC "-//W3C//DTD SVG 20010904//EN"
              "http://www.w3.org/TR/2001/REC-SVG-20010904/DTD/svg10.dtd">

<svg xmlns="http://www.w3.org/2000/svg"
     width="1.16667in" height="0.85in"
     viewBox="0 0 350 255">
  <path id="Sélection #2"
        fill="none" stroke="black" stroke-width="1"
        d="M 190.00,65.00
           C 190.00,65.00 187.00,73.00 187.00,73.00
             187.00,73.00 183.00,69.00 183.00,69.00
             179.51,69.65 173.87,72.48 171.04,71.50
             165.94,69.74 166.98,63.34 160.98,65.02
             158.09,65.83 145.34,73.72 142.28,75.80
             139.58,77.64 135.38,81.14 132.01,80.94
             124.97,80.52 119.72,64.95 111.01,67.64
             100.86,70.78 101.07,87.28 90.00,90.17
             88.25,90.63 78.94,88.02 77.30,86.99
             74.90,85.48 73.05,79.99 65.00,78.30
             53.70,75.91 53.65,83.78 48.90,91.00
             46.89,94.05 43.42,97.26 43.25,101.00
             43.08,104.95 46.06,107.54 47.28,111.00
             48.32,113.97 48.00,120.60 48.00,124.00
             55.40,127.53 55.20,131.83 59.18,133.39
             63.96,135.25 73.10,129.22 74.89,138.02
             74.89,138.02 74.89,142.00 74.89,142.00
             78.19,142.23 82.49,142.87 84.26,146.15
             84.26,146.15 84.26,147.87 84.26,147.87
             84.11,149.64 83.16,150.53 82.56,152.17
             82.56,152.17 80.75,160.00 80.75,160.00
             79.39,166.50 82.04,166.46 82.61,171.00
             82.96,173.75 80.43,183.45 79.08,186.00
             75.42,192.93 70.72,194.38 68.31,199.01
             64.87,205.65 71.30,210.80 73.91,210.80
             76.32,210.80 79.40,206.73 80.86,205.00
             83.47,201.90 87.72,196.11 88.13,192.00
             88.52,188.14 83.98,181.26 92.18,174.80
             98.95,169.48 106.60,173.27 114.00,171.70
             114.00,171.70 121.00,168.96 121.00,168.96
             121.00,168.96 128.91,167.95 128.91,167.95
             132.24,166.91 133.90,164.44 138.00,164.29
             144.22,164.06 145.38,169.28 151.01,166.83
             152.34,166.25 161.04,161.39 161.79,160.49
             161.79,160.49 168.96,147.22 168.96,147.22
             173.00,142.13 181.35,142.63 187.00,144.00
             183.16,157.63 195.46,151.13 205.83,165.04
             209.11,169.44 208.69,170.55 210.55,173.83
             209.12,171.31 221.61,189.06 219.64,186.77
             223.06,190.75 226.61,189.30 229.15,192.43
             231.21,194.97 230.66,198.66 231.59,200.95
             232.59,203.38 241.61,209.48 244.17,210.17
             248.41,211.31 250.66,207.13 256.00,206.58
             256.00,206.58 261.00,206.58 261.00,206.58
             264.54,205.98 269.61,202.79 274.00,202.42
             278.45,202.04 289.81,207.59 296.00,209.00
             296.00,209.00 301.79,198.00 301.79,198.00
             301.79,198.00 304.16,191.00 304.16,191.00
             304.16,191.00 307.87,185.00 307.87,185.00
             307.87,185.00 311.82,171.00 311.82,171.00
             313.38,158.42 308.00,143.99 304.56,132.00
             303.46,128.18 301.36,120.71 301.09,117.00
             300.72,111.98 301.54,106.76 299.35,102.01
             297.00,96.91 292.68,95.78 288.51,90.91
             288.51,90.91 275.54,72.09 275.54,72.09
             271.83,67.94 269.64,67.65 266.04,64.62
             258.83,58.58 253.02,45.18 245.00,43.32
             235.46,41.10 228.61,52.16 224.45,59.00
             223.09,61.23 221.23,64.96 218.94,66.26
             214.16,68.95 213.59,60.72 209.79,59.17
             205.47,57.40 202.75,64.32 198.96,65.85
             196.73,66.75 192.62,65.33 190.00,65.00 Z" />
</svg>
